<?xml version="1.0" encoding="utf-8"?>
<svg width="400" height="400" viewBox="0 0 400 400" fill="none" xmlns="http://www.w3.org/2000/svg">
  <defs>
    <linearGradient id="gradient_1" gradientUnits="userSpaceOnUse" x1="138" y1="0" x2="138" y2="157.078">
      <stop offset="0" stop-color="#FCFCFA" />
      <stop offset="0.99" stop-color="#BA9B86" />
    </linearGradient>
    <linearGradient id="gradient_2" gradientUnits="userSpaceOnUse" x1="185.73" y1="242.027" x2="185.73" y2="26.027">
      <stop offset="0" stop-color="#FCFCFA" />
      <stop offset="0.99" stop-color="#BA9B86" />
    </linearGradient>
    <linearGradient id="gradient_3" gradientUnits="userSpaceOnUse" x1="106.896" y1="99.466" x2="123.896" y2="121.466">
      <stop offset="0" stop-color="#784A3C" />
      <stop offset="1" stop-color="#EBD8BE" />
    </linearGradient>
    <linearGradient id="gradient_4" gradientUnits="userSpaceOnUse" x1="139.896" y1="105.466" x2="129.896" y2="86.466">
      <stop offset="0" stop-color="#744E41" />
      <stop offset="1" stop-color="#F7CFAC" />
    </linearGradient>
    <linearGradient id="gradient_5" gradientUnits="userSpaceOnUse" x1="114.896" y1="77.466" x2="135.896" y2="102.966">
      <stop offset="0" stop-color="#784A3C" />
      <stop offset="1" stop-color="#EBD8BE" />
    </linearGradient>
    <linearGradient id="gradient_6" gradientUnits="userSpaceOnUse" x1="156.896" y1="76.466" x2="145.896" y2="53.466">
      <stop offset="0" stop-color="#734D40" />
      <stop offset="1" stop-color="#F7CFAC" />
    </linearGradient>
    <linearGradient id="gradient_7" gradientUnits="userSpaceOnUse" x1="-0.5" y1="28.5" x2="178.5" y2="186.5">
      <stop offset="0" stop-color="#90DECF" />
      <stop offset="1" stop-color="#213A4C" />
    </linearGradient>
    <linearGradient id="gradient_8" gradientUnits="userSpaceOnUse" x1="80.5" y1="0" x2="80.5" y2="289">
      <stop offset="0" stop-color="#4B7083" />
      <stop offset="1" stop-color="#A7FCF3" />
    </linearGradient>
    <radialGradient id="gradient_9" gradientUnits="userSpaceOnUse" cx="0" cy="0" r="1" gradientTransform="matrix(0 85 -85 0 85 85)">
      <stop offset="0" stop-color="#4F7E82" />
      <stop offset="1" stop-color="#9AFCF7" stop-opacity="0" />
    </radialGradient>
    <linearGradient id="gradient_10" gradientUnits="userSpaceOnUse" x1="53.038" y1="50.529" x2="53.038" y2="15.41">
      <stop offset="0" stop-color="#FCFCFA" />
      <stop offset="0.99" stop-color="#BA9B86" />
    </linearGradient>
  </defs>
  <g>
    <g transform="translate(14 14)">
      <path d="M0 181C0 81.0365 77.9025 0 174 0C270.098 0 348 81.0365 348 181C348 280.964 270.098 362 174 362C77.9025 362 0 280.964 0 181Z" fill="#1A2737" fill-rule="evenodd" />
      <g fill="#3D6570" fill-rule="evenodd" transform="translate(18 47.5)">
        <path d="M0 155C0 69.3959 69.3959 0 155 0C240.604 0 310 69.3959 310 155C310 240.604 240.604 310 155 310C69.3959 310 0 240.604 0 155L0 155ZM13 155C13 76.5756 76.5756 13 155 13C233.424 13 297 76.5756 297 155C297 233.424 233.424 297 155 297C76.5756 297 13 233.424 13 155L13 155Z" />
        <path d="M155 0C69.3959 0 0 69.3959 0 155C0 240.604 69.3959 310 155 310C240.604 310 310 240.604 310 155C310 69.3959 240.604 0 155 0ZM14.0227 214.554Q1.99997 186.129 1.99998 155Q2 123.871 14.0227 95.4461Q25.6358 67.9896 46.8127 46.8127Q67.9895 25.6359 95.4461 14.0227Q123.871 1.99994 155 1.99998Q186.129 2 214.554 14.0227Q242.01 25.6358 263.187 46.8127Q284.364 67.9891 295.977 95.4461Q308 123.871 308 155Q308 186.129 295.977 214.554Q284.364 242.011 263.187 263.187Q242.011 284.364 214.554 295.977Q186.129 308 155 308Q123.871 308 95.4461 295.977Q67.9891 284.364 46.8127 263.187Q25.6359 242.011 14.0227 214.554ZM22.3171 98.9481Q11 125.705 11 155Q11 184.295 22.317 211.052Q33.2473 236.894 53.1766 256.823Q73.1057 276.752 98.9481 287.683Q125.704 299 155 299Q184.296 299 211.052 287.683Q236.894 276.752 256.823 256.823Q276.752 236.894 287.683 211.052Q299 184.296 299 155Q299 125.704 287.683 98.9481Q276.752 73.1056 256.823 53.1766Q236.894 33.2474 211.052 22.3171Q184.295 11 155 11Q125.705 11 98.9481 22.317Q73.1058 33.2474 53.1766 53.1766Q33.2474 73.1058 22.3171 98.9481ZM155 13C76.5756 13 13 76.5756 13 155C13 233.424 76.5756 297 155 297C233.424 297 297 233.424 297 155C297 76.5756 233.424 13 155 13Z" fill="#6FAEA8" fill-rule="evenodd" />
      </g>
      <g transform="translate(7.475 3.405)">
        <path d="M0 19.0784C0 12.6051 0.445694 6.23601 1.30807 0C2.90255 10.2047 7.99717 147.078 138 147.078C268.003 147.078 273.097 10.2048 274.692 0.000106812C275.554 6.23608 276 12.6052 276 19.0784C276 95.2937 214.215 157.078 138 157.078C61.7847 157.078 0 95.2937 0 19.0784L0 19.0784Z" fill="url(#gradient_1)" fill-rule="evenodd" transform="translate(27.525 180.015)" />
        <path d="M0 23.3953C0 15.4574 0.537079 7.64708 1.57629 0C3.49774 12.5138 9.63708 180.359 166.299 180.359C322.96 180.359 329.099 12.5139 331.021 0.000152588C332.06 7.64719 332.597 15.4574 332.597 23.3954C332.597 116.856 258.143 192.622 166.299 192.622C74.4544 192.622 0 116.856 0 23.3953L0 23.3953Z" fill="url(#gradient_2)" fill-rule="evenodd" transform="matrix(-1 -0 0 -1 332.597 192.622)" />
        <path d="M263.78 0C263.78 0 234.988 40.5696 231.116 43.5091C225.194 47.8117 217.311 47.4626 211.828 43.1525L37.6014 171.066L37.0509 171.262C34.5675 172.15 31.8292 172.812 28.8359 173.249C22.2248 174.215 17.2231 173.337 13.8311 170.615C10.4606 167.911 8.47132 163.203 7.86309 156.49C7.58693 153.442 7.58418 150.592 7.85486 147.938L7.85494 147.937L8.03231 146.201L31.3726 128.594L0 119.678L0.730469 112.143L9.23287 114.41L49.2959 125.094L15.6892 150.446C15.6128 152.112 15.6599 153.886 15.8304 155.768C16.234 160.222 17.2363 163.091 18.8374 164.376C20.4184 165.644 23.3658 165.963 27.6795 165.333C29.9294 165.004 31.9781 164.531 33.8256 163.913L200.149 41.8023L206.97 36.7945C204.131 30.0929 206.166 22.0818 212.306 17.6206C216.422 14.6505 263.78 0 263.78 0L263.78 0Z" fill="none" stroke-width="21" stroke="#1A2737" transform="translate(48.733 70.618)" />
        <path d="M51.4734 158.176C57.6701 153.674 59.6862 145.556 56.7307 138.818L57.9805 137.9L229.913 11.6711C230.147 11.5929 230.466 11.4629 230.857 11.3036C233.553 10.2043 239.671 7.70985 244.901 11.2088C249.014 13.9605 248.144 24.6938 247.925 26.8337L247.904 27.0366L247.904 118.811L284.542 118.811L289.97 100.811L265.904 100.811L265.904 27.4382C266.154 24.8463 264.886 12.6439 254.908 4.96884C241.888 -5.04567 228.23 2.90552 226.137 4.5186C224.239 5.9819 78.7859 112.714 51.793 132.52C46.3168 128.327 38.5291 128.026 32.6643 132.287C28.7922 135.227 0 175.796 0 175.796C0 175.796 47.3577 161.146 51.4734 158.176L51.4734 158.176Z" fill="none" stroke-width="21" stroke="#1A2737" transform="translate(19.679 128.586)" />
      </g>
      <g transform="translate(27.104 74.032)">
        <g fill="url(#gradient_3)" fill-rule="evenodd" transform="translate(27 0)">
          <path d="M265.841 0C265.841 0 237.049 40.5696 233.177 43.5091C227.255 47.8117 219.373 47.4626 213.889 43.1525L39.6627 171.066L39.1123 171.262C36.6289 172.15 33.8905 172.812 30.8972 173.249C24.2861 174.215 19.2845 173.337 15.8924 170.615C12.5219 167.911 10.5326 163.203 9.9244 156.49C9.64824 153.442 9.64549 150.592 9.91618 147.938L9.91625 147.937L10.0936 146.201L33.4339 128.594L0 119.678L2.0613 111.948L11.2942 114.41L51.3572 125.094L17.7505 150.446C17.6741 152.112 17.7212 153.886 17.8918 155.768C18.2953 160.222 19.2976 163.091 20.8987 164.376C22.4797 165.644 25.4271 165.963 29.7408 165.333C31.9907 165.004 34.0394 164.531 35.8869 163.913L202.21 41.8023L209.031 36.7945C206.192 30.0929 208.228 22.0818 214.368 17.6206C218.484 14.6505 265.841 0 265.841 0L265.841 0Z" />
          <path d="M213.889 43.1525C219.373 47.4626 227.255 47.8117 233.177 43.5091C236.627 40.8897 259.866 8.39022 264.886 1.34252C265.5 0.481175 265.841 0 265.841 0C265.841 0 265.278 0.174401 264.268 0.489004C256.022 3.05787 218.035 14.9746 214.368 17.6206C208.228 22.0818 206.192 30.0929 209.031 36.7945L202.21 41.8023L35.8869 163.913C34.0394 164.531 31.9907 165.004 29.7408 165.333C25.4271 165.963 22.4797 165.644 20.8987 164.376C19.2976 163.091 18.2953 160.222 17.8918 155.768C17.7212 153.886 17.6741 152.112 17.7505 150.446L50.3436 125.859L51.3572 125.094L50.1304 124.767L11.2942 114.41L3.02754 112.206L2.0613 111.948L1.80364 112.915L0.257662 118.712L0 119.678L0.966234 119.936L32.2071 128.267L33.4339 128.594L32.4203 129.359L10.0936 146.201L9.91625 147.937L9.91618 147.938C9.64549 150.592 9.64824 153.442 9.9244 156.49C10.5326 163.203 12.5219 167.911 15.8924 170.615C19.2845 173.337 24.2861 174.215 30.8972 173.249Q35.3872 172.593 39.1123 171.262L39.6627 171.066L213.889 43.1525ZM39.1887 170.173L213.91 41.8968L214.507 42.3663Q218.407 45.4314 223.395 45.5609Q228.47 45.6927 232.572 42.7126Q236.209 39.9523 263.315 1.82985Q218.815 15.6446 214.956 18.4296Q210.678 21.5373 209.297 26.6291Q207.937 31.6471 209.952 36.4044L210.261 37.1326L202.802 42.6084L36.3525 164.812L36.2041 164.862Q33.3481 165.817 29.8853 166.323Q22.984 167.331 20.2729 165.156Q17.5395 162.963 16.8958 155.859Q16.6338 152.967 16.7516 150.4L16.7731 149.931L49.1168 125.531L11.0365 115.377L2.76987 113.172L1.2239 118.97L35.6743 128.156L11.0441 146.737L10.911 148.039L10.9104 148.045Q10.5151 151.927 10.9203 156.4Q11.7943 166.046 16.5182 169.835Q21.2667 173.645 30.7527 172.259Q35.1444 171.618 38.7758 170.321L39.1887 170.173Z" fill="url(#gradient_4)" fill-rule="evenodd" />
        </g>
        <g fill="url(#gradient_5)" fill-rule="evenodd" transform="translate(0 58)">
          <path d="M51.4735 158.176C57.6702 153.674 59.6863 145.556 56.7308 138.818L57.9806 137.9L229.913 11.6711C230.147 11.5929 230.466 11.4629 230.857 11.3036C233.553 10.2043 239.672 7.70985 244.902 11.2088C249.015 13.9605 248.144 24.6938 247.926 26.8337L247.905 27.0366L247.905 118.811L296.593 118.811L333.405 118.811L333.405 100.811L265.905 100.811L265.905 27.4382C266.155 24.8463 264.886 12.6439 254.908 4.96884C241.888 -5.04567 228.23 2.90552 226.138 4.5186C224.24 5.9819 78.7861 112.714 51.7931 132.52C46.3169 128.327 38.5292 128.026 32.6644 132.287C28.7923 135.227 0 175.796 0 175.796C0 175.796 47.3578 161.146 51.4735 158.176L51.4735 158.176Z" />
          <path d="M51.7931 132.52C46.3169 128.327 38.5292 128.026 32.6644 132.287C29.214 134.907 5.97574 167.406 0.955094 174.454C0.341491 175.315 0 175.796 0 175.796C0 175.796 0.563763 175.622 1.57361 175.307C9.81936 172.738 47.8069 160.822 51.4735 158.176C57.6702 153.674 59.6863 145.556 56.7308 138.818L57.9806 137.9L229.913 11.6711C230.147 11.5929 230.466 11.4629 230.857 11.3036C233.553 10.2043 239.672 7.70985 244.902 11.2088C249.015 13.9605 248.144 24.6938 247.926 26.8337L247.905 27.0366L247.905 117.811L247.905 118.811L248.905 118.811L296.593 118.811L332.405 118.811L333.405 118.811L333.405 100.811L332.405 100.811L266.905 100.811L265.905 100.811L265.905 99.8113L265.905 27.4382C266.155 24.8463 264.886 12.6439 254.908 4.96884C241.888 -5.04567 228.23 2.90552 226.138 4.5186C224.24 5.9819 78.7861 112.714 51.7931 132.52ZM332.405 101.811L264.905 101.811L264.905 27.3902L264.91 27.3423Q265.239 23.9262 263.299 18.4432Q260.501 10.5322 254.298 5.76148Q246.346 -0.355103 236.599 1.3681Q230.452 2.4548 226.748 5.31057L226.739 5.31767L137.439 70.909L51.7804 133.77L51.1852 133.314Q47.2892 130.331 42.3546 130.233Q37.3299 130.134 33.2521 133.096Q29.6323 135.845 2.52649 173.966Q47.0108 160.157 50.8857 157.367L50.8883 157.365Q55.2047 154.228 56.5675 149.079Q57.912 144 55.815 139.219L55.4932 138.486L57.3888 137.094L229.448 10.7723L229.596 10.7227Q229.8 10.6547 230.479 10.3776Q239.786 6.58325 245.458 10.3776Q250.282 13.6052 248.92 26.9354L248.905 27.0876L248.905 117.811L296.593 117.811L332.405 117.811L332.405 101.811Z" fill="url(#gradient_6)" fill-rule="evenodd" />
        </g>
      </g>
      <g transform="translate(29.709 75.854)">
        <path d="M36.5444 166.242L36.4754 166.267C34.2104 167.076 31.6959 167.682 28.9319 168.086C23.3259 168.905 19.223 168.272 16.6232 166.186C14.026 164.102 12.4683 160.197 11.9502 154.47C11.6946 151.645 11.6908 149.02 11.9387 146.594L11.9608 146.377L39.8159 125.363L4.74317 115.971L0.459641 117.267L0 117.097L0.180405 116.335L4.7305 114.933L42.0563 124.926L12.9121 146.912C12.6926 149.213 12.704 151.703 12.9461 154.38C13.4387 159.824 14.873 163.5 17.249 165.406C19.6224 167.31 23.4685 167.874 28.7873 167.097C31.4578 166.707 33.8854 166.124 36.0703 165.35L260.15 0.646072L262.149 0L261.415 0.908218L36.5444 166.242Z" fill="#FFFC38" fill-rule="evenodd" transform="translate(25.641 0)" />
        <path d="M113.413 85.2891L225.209 2.89708L225.222 2.88871C227.447 1.45184 230.439 0.536392 234.198 0.142376C239.182 -0.380093 243.495 0.535378 247.136 2.88879C250.619 5.14045 252.952 9.09105 254.134 14.7406C254.718 17.5338 254.962 20.1106 254.864 22.4708L254.864 104.532L297.852 104.532L321.792 104.532L329.229 97.2857L329.873 97.2857L329.849 98.0769L322.198 105.532L293.207 105.532L253.865 105.532L253.865 22.45L253.865 22.4396C253.96 20.1595 253.723 17.6614 253.155 14.9454C252.03 9.56816 249.843 5.82925 246.593 3.72865C243.149 1.50291 239.052 0.639008 234.302 1.13693C230.709 1.51358 227.867 2.37477 225.778 3.72049L114.007 86.0934L2.00398 168.817L0 169.424L0.649414 168.52L113.413 85.2891Z" fill="#FFFC38" fill-rule="evenodd" transform="translate(0 60.683)" />
      </g>
      <path d="M133.002 60.5C133.002 60.5 146.501 50.18 153.501 43.805C160.5 37.43 161 35 161 35C161 35 154.376 29.25 135.502 20.5C116.629 11.75 85.5062 0 85.5062 0L25.511 25C25.511 25 0.694504 36.0383 0.0130768 68.5C-0.66835 100.962 25.511 112.5 25.511 112.5L115.504 165.5C115.504 165.5 126.159 172.094 126.003 188.5C125.847 204.906 115.504 221.5 115.504 221.5C115.504 221.5 108.504 232.125 101.005 239.5C93.5055 246.875 85.5062 251 85.5062 251C85.5062 251 65.0078 237.125 53.5087 221.5C42.0096 205.875 39.5099 188.5 39.5099 188.5L15.0119 205.5C15.0119 205.5 25.386 230.68 43.0096 251.555C60.6331 272.43 85.5062 289 85.5062 289C85.5062 289 99.3991 279.875 112.273 267.5C125.147 255.125 137.002 239.5 137.002 239.5C137.002 239.5 157.5 215.235 157.5 185C157.5 154.765 137.002 142.5 137.002 142.5L47.0093 90.5C47.0093 90.5 31.4323 82.7991 32.0105 66.914C32.5886 51.0289 47.0093 43 47.0093 43L85.5062 26.5L119.503 40.5C119.503 40.5 126.128 43 129.503 48C132.877 53 133.002 60.5 133.002 60.5Z" fill="none" stroke-width="21" stroke="#1A2737" transform="translate(87.5 66.998)" />
      <g fill="url(#gradient_7)" fill-rule="evenodd" transform="translate(88.5 66.998)">
        <path d="M133.002 60.5C133.002 60.5 146.501 50.18 153.501 43.805C160.5 37.43 161 35 161 35C161 35 154.376 29.25 135.502 20.5C116.629 11.75 85.5062 0 85.5062 0L25.511 25C25.511 25 0.694504 36.0383 0.0130768 68.5C-0.66835 100.962 25.511 112.5 25.511 112.5L115.504 165.5C115.504 165.5 126.159 172.094 126.003 188.5C125.847 204.906 115.504 221.5 115.504 221.5C115.504 221.5 108.504 232.125 101.005 239.5C93.5055 246.875 85.5062 251 85.5062 251C85.5062 251 65.0078 237.125 53.5087 221.5C42.0096 205.875 39.5099 188.5 39.5099 188.5L15.0119 205.5C15.0119 205.5 25.386 230.68 43.0096 251.555C60.6331 272.43 85.5062 289 85.5062 289C85.5062 289 99.3991 279.875 112.273 267.5C125.147 255.125 137.002 239.5 137.002 239.5C137.002 239.5 157.5 215.235 157.5 185C157.5 154.765 137.002 142.5 137.002 142.5L47.0093 90.5C47.0093 90.5 31.4323 82.7991 32.0105 66.914C32.5886 51.0289 47.0093 43 47.0093 43L85.5062 26.5L119.503 40.5C119.503 40.5 126.128 43 129.503 48C132.877 53 133.002 60.5 133.002 60.5Z" />
        <path d="M85.5062 26.5L119.503 40.5C119.503 40.5 126.128 43 129.503 48C131.132 50.4146 132.004 53.4122 132.47 55.8667C132.969 58.4947 133.002 60.5 133.002 60.5C133.002 60.5 134.536 59.3276 136.837 57.529C141.364 53.9914 148.86 48.0313 153.501 43.805C160.5 37.43 161 35 161 35C161 35 154.376 29.25 135.502 20.5C116.629 11.75 85.5062 0 85.5062 0L25.511 25C25.511 25 0.694504 36.0383 0.0130768 68.5C-0.66835 100.962 25.511 112.5 25.511 112.5L115.504 165.5C115.504 165.5 126.159 172.094 126.003 188.5C125.847 204.906 115.504 221.5 115.504 221.5C115.504 221.5 108.504 232.125 101.005 239.5C93.5055 246.875 85.5062 251 85.5062 251C85.5062 251 65.0078 237.125 53.5087 221.5C45.4984 210.615 41.855 198.882 40.3817 192.764C39.74 190.099 39.5099 188.5 39.5099 188.5L35.8799 191.019L15.0119 205.5C15.0119 205.5 25.386 230.68 43.0096 251.555C60.6331 272.43 85.5062 289 85.5062 289C85.5062 289 99.3991 279.875 112.273 267.5C125.147 255.125 137.002 239.5 137.002 239.5C137.002 239.5 157.5 215.235 157.5 185C157.5 154.765 137.002 142.5 137.002 142.5L47.0093 90.5C47.0093 90.5 31.4323 82.7991 32.0105 66.914C32.5886 51.0289 47.0093 43 47.0093 43L85.5062 26.5ZM45.1154 94.0254Q40.6731 91.7991 36.4323 87.4596Q27.5894 78.411 28.0131 66.7685Q28.4282 55.3632 36.7844 46.2902Q40.897 41.8249 45.0635 39.5052L45.2438 39.4048L85.4752 22.1614L120.973 36.7794Q128.746 39.7294 132.818 45.7622Q135.017 49.02 136.062 53.0789Q145.425 45.7499 150.807 40.8477Q153.909 38.0224 155.663 35.9195Q148.778 31.0639 133.82 24.129Q115.565 15.6657 85.5776 4.30362L27.0954 28.6731Q21.6653 31.1023 15.9576 37.2892Q4.40628 49.8101 4.0122 68.584Q3.62042 87.2471 15.4302 99.9433Q21.328 106.284 27.1242 108.84L27.1248 108.84L27.3388 108.934L117.534 162.053Q120.955 164.169 124.066 168.522Q130.112 176.981 130.003 188.538Q129.898 199.578 124.382 212.702Q121.653 219.196 118.898 223.616L118.872 223.659L118.844 223.701Q111.611 234.679 103.81 242.352Q95.8778 250.152 87.3395 254.555L85.2298 255.643L83.264 254.313Q77.9814 250.737 71.2718 245.193Q57.7669 234.035 50.2871 223.871Q42.7246 213.595 38.4007 200.401Q37.4962 197.64 36.8508 195.214L19.9815 206.92Q22.3048 212.085 25.9234 218.802Q35.3193 236.245 46.066 248.974Q56.8268 261.72 73.3598 274.977Q80.1972 280.46 85.5284 284.174Q97.9263 275.742 109.501 264.616Q122.15 252.458 133.815 237.082L133.879 236.999L133.946 236.919Q138.784 231.192 143.703 221.741Q153.5 202.918 153.5 185Q153.5 167.434 144.049 154.809Q139.397 148.594 134.948 145.932L45.1154 94.0254Z" fill="url(#gradient_8)" fill-rule="evenodd" />
      </g>
      <path d="M1 13C1 17.8005 3.60197 21.9933 7.47253 24.2449L0 52L28 52L20.5275 24.2449C24.398 21.9933 27 17.8005 27 13C27 5.8203 21.1797 0 14 0C6.8203 0 1 5.8203 1 13L1 13Z" fill="#9BFDF8" fill-rule="evenodd" transform="translate(159 230.499)" />
      <path d="M141.159 23.6117L126.44 25.5603L70.5003 1.08675L27.1827 19.0112L27.1682 19.0162C22.7376 20.5391 18.3195 23.1866 13.9139 26.9588C5.12531 34.4837 0.822556 43.8425 1.00562 55.0352C1.18861 66.238 5.60508 75.6877 14.2551 83.3842C18.5881 87.2396 22.8968 89.9699 27.1811 91.5752L27.2202 91.5898L67.9672 115.193L109.243 139.103C112.181 140.581 115.119 143.187 118.057 146.919C123.921 154.369 126.903 163.742 127.006 175.039C127.108 186.311 124.201 197.248 118.284 207.852C115.331 213.144 112.363 217.318 109.381 220.375C100.79 231.133 93.2809 239.642 86.8546 245.902C80.3921 252.196 75.006 256.231 70.6961 258.006L70.4267 258.117L70.1973 257.937C55.0683 246.083 43.1609 235.229 34.4751 225.374C29.0321 219.199 24.6605 212.906 21.3604 206.495C19.7725 203.41 18.6851 200.889 18.0984 198.932L6.44587 194.901L5.94086 193.943L6.27489 193.74L18.9151 198.155L18.9866 198.407C19.5353 200.334 20.6229 202.878 22.2495 206.037C25.5118 212.374 29.837 218.599 35.2253 224.713C43.8263 234.471 55.6122 245.223 70.5828 256.969C74.73 255.187 79.9213 251.259 86.1568 245.185C92.558 238.95 100.044 230.466 108.615 219.731L108.631 219.712L108.648 219.694C111.574 216.699 114.495 212.589 117.41 207.365C123.241 196.915 126.106 186.143 126.006 175.048C125.905 163.979 122.994 154.809 117.272 147.538C114.421 143.916 111.591 141.4 108.781 139.99L108.768 139.984L26.7911 92.4969C22.4033 90.8462 18.003 88.0577 13.5903 84.1312C4.72189 76.2404 0.193695 66.5472 0.00575256 55.0516C-0.182281 43.5455 4.23697 33.9281 13.2635 26.1992C17.7608 22.3485 22.2825 19.6406 26.8286 18.0755L70.5112 0L126.572 24.5265L140.98 22.5786L141.688 23.0667L141.159 23.6117Z" fill="#3DFCE8" fill-rule="evenodd" mix-blend-mode="overlay" transform="translate(102.494 79.955)" />
      <path d="M0 85C0 38.0558 38.0558 0 85 0C131.944 0 170 38.0558 170 85C170 131.944 131.944 170 85 170C38.0558 170 0 131.944 0 85Z" fill="url(#gradient_9)" fill-rule="evenodd" fill-opacity="0.51" transform="translate(88 171.498)" />
      <path d="M0 7C0 3.13401 17.0132 0 38 0C58.9868 0 76 3.13401 76 7C76 10.866 58.9868 14 38 14C17.0132 14 0 10.866 0 7Z" fill="#1A2737" fill-rule="evenodd" transform="translate(134 44.498)" />
      <path d="M0.304825 1.90735e-06C0.103348 1.29497 0 2.61017 0 3.94201C0 24.1297 23.7458 40.4951 53.0379 40.4951C82.3298 40.4951 106.076 24.1297 106.076 3.94201C106.076 2.61017 105.972 1.29496 105.771 0C102.918 18.3338 80.3974 32.6111 53.0379 32.6111C25.6783 32.6111 3.1573 18.3338 0.304825 1.90735e-06Z" fill="url(#gradient_10)" fill-rule="evenodd" transform="translate(117.962 25.011)" />
      <path d="M0 8.5C0 3.80558 4.701 0 10.5 0C16.299 0 21 3.80558 21 8.5C21 13.1944 16.299 17 10.5 17C4.701 17 0 13.1944 0 8.5Z" fill="#B08F7B" fill-rule="evenodd" transform="translate(162 21)" />
    </g>
  </g>
</svg>